PathFileType	3	(X/Y/Z)	F:\ViconData\AntennenMessung\Messung1\Session1\ID11.trc
DataRate	CameraRate	NumFrames	NumMarkers	Units	OrigDataRate	OrigDataStartFrame	OrigNumFrames
120.0	120.0	4	70	mm	120.0	322	1286	
Frame#	Time	Ashort			Along			Atop			A4			Bshort			Blong			Btop			B4			Cshort			Clong			Ctop			C4			Dshort			Dlong			Dtop			D4			Eshort			Elong			Etop			E4			Fshort			Flong			Ftop			F4			Gshort			Glong			Gtop			G4			Hshort			Hlong			Htop			H4			I1			I2			I3			I4			I5			WandAshort			WandAlong			WandAtop			WandA4			WandA15			WandBshort			WandB4			WandB5			WandBtop			WandBlong			WandCshort			WandClong			WandCtop			WandC4			WandC5			Acenter			Aantenna			Bcenter			Bantenna			Ccenter			Cantenna			Dcenter			Dantenna			Ecenter			Eantenna			Fcenter			Fantenna			Gcenter			Gantenna			Hcenter			Hantenna			Icenter			Iantenna			
		X1	Y1	Z1	X2	Y2	Z2	X3	Y3	Z3	X4	Y4	Z4	X5	Y5	Z5	X6	Y6	Z6	X7	Y7	Z7	X8	Y8	Z8	X9	Y9	Z9	X10	Y10	Z10	X11	Y11	Z11	X12	Y12	Z12	X13	Y13	Z13	X14	Y14	Z14	X15	Y15	Z15	X16	Y16	Z16	X17	Y17	Z17	X18	Y18	Z18	X19	Y19	Z19	X20	Y20	Z20	X21	Y21	Z21	X22	Y22	Z22	X23	Y23	Z23	X24	Y24	Z24	X25	Y25	Z25	X26	Y26	Z26	X27	Y27	Z27	X28	Y28	Z28	X29	Y29	Z29	X30	Y30	Z30	X31	Y31	Z31	X32	Y32	Z32	X33	Y33	Z33	X34	Y34	Z34	X35	Y35	Z35	X36	Y36	Z36	X37	Y37	Z37	X38	Y38	Z38	X39	Y39	Z39	X40	Y40	Z40	X41	Y41	Z41	X42	Y42	Z42	X43	Y43	Z43	X44	Y44	Z44	X45	Y45	Z45	X46	Y46	Z46	X47	Y47	Z47	X48	Y48	Z48	X49	Y49	Z49	X50	Y50	Z50	X51	Y51	Z51	X52	Y52	Z52	X53	Y53	Z53	X54	Y54	Z54	X55	Y55	Z55	X56	Y56	Z56	X57	Y57	Z57	X58	Y58	Z58	X59	Y59	Z59	X60	Y60	Z60	X61	Y61	Z61	X62	Y62	Z62	X63	Y63	Z63	X64	Y64	Z64	X65	Y65	Z65	X66	Y66	Z66	X67	Y67	Z67	X68	Y68	Z68	X69	Y69	Z69	X70	Y70	Z70	
322	2.675	-1038.2239	214.49614	-1644.2388	-1109.2883	203.89178	-1599.397	-1063.8274	172.61958	-1625.4596	-1054.1617	262.21671	-1634.9828	-1352.9795	234.80771	1003.8055	-1281.3762	227.20052	1052.4141	-1322.8469	194.05597	1020.8818	-1284.7589	287.88696	1052.8546	814.01245	187.69907	1209.4564	892.39026	178.55524	1179.3025	844.33881	145.60667	1198.2749	860.63806	293.31415	1166.8423	1115.7518	209.76248	-1401.6954	1056.2604	194.21519	-1460.34	1095.0573	162.57147	-1424.0168	1069.9209	238.58458	-1425.8215	-1204.5863	1686.0143	-1563.1121	-1129.1221	1688.2517	-1606.0808	-1173.1399	1724.4323	-1581.9619	-1133.7339	1580.9816	-1603.6738	-1239.7019	1699.2452	1119.4822	-1309.3771	1698.8372	1071.9141	-1270.442	1736.3254	1096.88	-1244.6967	1593.7474	1106.3925	988.92352	1664.272	1162.314	957.47424	1700.3214	1183.8165	922.64746	1662.1915	1214.9506	939.83929	1659.384	1160.0049	999.06616	1668.5261	-1579.4568	1058.881	1670.1558	-1518.6548	1025.0018	1708.0066	-1551.134	1059.2598	1672.129	-1585.4679	-26.495464	1172.965	-954.2594	-111.40268	1171.6453	-962.95435	-64.762009	1209.6163	-959.30707	-60.66555	1170.6101	-989.69647	-68.990204	1175.3521	-910.46863																																														-1068.9907	209.90504	-1624.8247	-1074.3396	248.5309	-1624.1672	-1321.6953	231.48405	1025.043	-1320.5033	270.22711	1029.3505	848.04999	183.72812	1196.3613	851.82416	222.49626	1194.4152	1088.7762	202.71278	-1428.2869	1082.7803	241.03288	-1432.3634	-1171.8953	1686.9835	-1581.726	-1170.5997	1648.0057	-1581.4803	-1271.0453	1699.0615	1098.0835	-1271.6765	1660.087	1099.3423	953.01373	1705.4343	1186.8663	972.80469	1733.6176	1168.5625	1026.5002	1669.2734	-1551.5699	1028.0076	1630.3052	-1552.0085	-64.30368	1172.3772	-958.1311	-63.823952	1133.3997	-956.90027
323	2.6833333	-1038.1904	214.42317	-1644.2988	-1109.3048	203.80811	-1599.3658	-1063.8223	172.62691	-1625.4473	-1054.1685	262.20407	-1634.9574	-1353.0126	234.97942	1003.8578	-1281.3397	227.17586	1052.4125	-1322.8159	194.11894	1020.8246	-1284.6388	287.86539	1052.7957	813.9707	187.67775	1209.5017	892.83502	179.13498	1178.7562	844.54761	145.36841	1198.3153	860.60663	292.79517	1167.2769	1115.7233	209.50641	-1401.5651	1056.2411	194.23752	-1460.3981	1095.0227	162.52715	-1424.0271	1069.9047	238.59424	-1425.8239	-1204.5212	1685.9562	-1563.2489	-1129.1178	1688.2635	-1606.0974	-1173.1472	1724.4293	-1581.9569	-1133.7145	1580.9838	-1603.6741	-1239.6818	1699.2375	1119.4681	-1309.3556	1698.7881	1071.8918	-1270.4657	1736.3477	1096.8856	-1244.7766	1593.5793	1106.7386	988.86926	1664.2095	1162.3105	957.45056	1700.339	1183.8191	922.74316	1662.0792	1215.0703	939.83105	1659.3829	1160.0065	999.05975	1668.5295	-1579.4711	1058.8688	1670.153	-1518.6702	1025.0083	1708.0192	-1551.1344	1059.2557	1672.1256	-1585.4694	-26.490751	1172.9735	-954.25793	-111.65434	1172.0515	-963.03943	-64.772858	1209.6107	-959.30499	-60.650845	1170.6202	-989.70831	-68.957108	1175.3596	-910.47034																																														-1068.9901	209.82576	-1624.8383	-1074.3558	248.44969	-1624.2059	-1321.642	231.56387	1025.1097	-1320.4276	270.29221	1029.5419	847.9317	183.99901	1196.2618	851.33032	222.79587	1194.1998	1088.829	202.60272	-1428.1658	1082.903	240.94595	-1432.1256	-1171.9026	1686.9541	-1581.7845	-1170.608	1647.9761	-1581.6056	-1271.0289	1699.0353	1098.0629	-1271.6172	1660.0591	1099.2926	953.1134	1705.3263	1186.7881	972.87445	1733.4661	1168.3856	1026.5043	1669.2743	-1551.5714	1028.0089	1630.3059	-1552.011	-64.488182	1172.5621	-958.17596	-64.188644	1133.5814	-956.9881
324	2.6916667	-1038.231	214.45993	-1644.2074	-1109.2925	203.88812	-1599.3921	-1063.8002	172.64276	-1625.4387	-1054.1398	262.21738	-1634.9988	-1352.9341	235.02747	1003.8403	-1281.386	227.11269	1052.3334	-1322.8241	194.12978	1020.8481	-1284.5984	287.87372	1052.765	814.0304	187.66663	1209.6224	892.83655	179.17346	1178.8254	844.56946	145.2794	1198.4211	860.60931	292.85013	1167.3427	1115.7661	209.77301	-1401.7015	1056.2025	194.10773	-1460.3027	1095.0242	162.29369	-1423.8927	1069.9031	238.60606	-1425.8433	-1204.595	1686.01	-1563.1071	-1129.1361	1688.2549	-1606.0791	-1173.1464	1724.4176	-1581.9594	-1133.6935	1580.9884	-1603.6675	-1239.7001	1699.278	1119.4805	-1309.3947	1698.8323	1071.915	-1270.4406	1736.3364	1096.8677	-1244.7235	1593.7836	1106.551	988.90125	1664.246	1162.3387	957.14703	1700.592	1183.8108	922.79291	1662.1205	1215.0388	939.8689	1659.3733	1159.9984	999.06561	1668.5148	-1579.45	1058.8817	1670.1528	-1518.6593	1025.0049	1708.0271	-1551.1462	1059.246	1672.1155	-1585.4656	-26.472641	1173.0046	-954.28094	-111.64759	1172.0189	-963.00885	-64.767639	1209.6331	-959.31671	-60.784389	1170.5531	-989.60669	-68.979645	1175.3599	-910.45447																																														-1068.9572	209.88878	-1624.8296	-1074.3053	248.51517	-1624.1981	-1321.566	231.55746	1025.1006	-1320.2642	270.28653	1029.501	847.94214	184.01184	1196.3699	851.32062	222.81087	1194.3152	1088.7368	202.66426	-1428.2941	1082.7699	240.97806	-1432.4712	-1171.8998	1686.9825	-1581.7261	-1170.6018	1648.0049	-1581.4832	-1271.0383	1699.0775	1098.0927	-1271.6635	1660.1035	1099.3739	953.01471	1705.3218	1186.6051	972.69122	1733.4489	1168.0929	1026.4977	1669.2659	-1551.5708	1027.9987	1630.2971	-1551.9977	-64.455833	1172.5649	-958.1731	-64.12796	1133.5848	-956.97046
325	2.7	-1038.1825	214.40654	-1644.2858	-1109.2905	203.87036	-1599.3801	-1063.8365	172.64113	-1625.4307	-1054.1898	262.18863	-1634.983	-1353.0081	234.84561	1003.8115	-1281.3363	227.18794	1052.4161	-1322.8293	194.09129	1020.8976	-1284.7438	287.85571	1052.8441	814.0332	187.60751	1209.5408	892.64948	179.24602	1178.8149	844.30048	145.60884	1198.366	860.48431	292.86169	1167.33	1115.7588	209.77307	-1401.7014	1056.2286	194.13222	-1460.3076	1095.082	162.83279	-1424.1195	1069.8912	238.59622	-1425.8439	-1204.5366	1685.9435	-1563.2491	-1129.1218	1688.2656	-1606.1105	-1173.1515	1724.4478	-1581.9697	-1133.6737	1580.9763	-1603.6382	-1239.7245	1699.2874	1119.4829	-1309.3092	1698.7025	1071.8679	-1270.4458	1736.3368	1096.8832	-1244.7283	1593.7673	1106.5253	988.9303	1664.275	1162.3121	957.11389	1700.5917	1183.8196	922.64124	1662.1124	1215.0133	939.82147	1659.3739	1159.9819	999.06042	1668.556	-1579.5046	1058.8867	1670.1613	-1518.6548	1025.0051	1708.014	-1551.1526	1059.2607	1672.1292	-1585.4728	-26.514109	1172.8794	-954.09265	-111.67066	1172.0759	-963.09668	-64.759323	1209.6176	-959.302	-60.776691	1170.5499	-989.60913	-69.136269	1175.2601	-910.56677																																														-1068.9756	209.84386	-1624.8395	-1074.3115	248.47223	-1624.2256	-1321.6617	231.49646	1025.069	-1320.4524	270.23755	1029.3895	847.62384	184.03485	1196.4124	850.98004	222.84006	1194.4396	1088.7354	202.673	-1428.3053	1082.6327	240.98172	-1432.3302	-1171.8993	1686.9484	-1581.7981	-1170.5978	1647.9706	-1581.6199	-1270.9675	1699.0247	1098.104	-1271.5125	1660.0493	1099.3793	952.89716	1705.4047	1186.6698	972.5827	1733.5721	1168.2288	1026.4973	1669.2921	-1551.5981	1027.9991	1630.3236	-1552.0468	-64.535034	1172.5205	-958.11279	-64.299377	1133.5413	-956.86322
